<svg width="490" height="837" viewBox="0 0 490 837" fill="none" xmlns="http://www.w3.org/2000/svg">
<g opacity="0.2">
<path d="M398.672 316.809C400.274 322.787 400.131 330.481 398.02 341.239C392.149 369.863 361.14 405.91 328.336 443.987C310.332 464.939 291.702 486.574 277.206 507.187C249.567 539.021 236.667 583.892 224.148 627.328C215.016 659.062 206.358 689.034 192.488 714.168L192.457 714.219C181.536 733.23 168.979 744.12 154.096 747.506C125.054 754.127 91.4189 731.014 52.4752 704.206L48.7287 701.64C19.7484 681.795 -18.4662 657.372 -75.1268 622.366L-79.8009 619.361C-129.137 587.683 -190.543 548.229 -237.4 488.362C-340.276 370.868 -320.43 238.597 -274.542 186.22C-219.641 129.707 -149.356 114.487 -5.79055 127.97C143.928 142.255 279.28 226.491 330.51 262.048C348.397 277.426 362.932 286.175 373.544 292.535C386.961 300.637 395.748 305.895 398.672 316.809ZM187.513 711.716C201.081 687.137 209.636 657.45 218.717 626.031C231.37 582.086 244.465 536.603 272.731 504.086C287.216 483.432 305.951 461.683 324.028 440.669C356.341 403.11 386.87 367.622 392.487 340.399C397.675 313.592 390.808 309.454 370.418 297.156C359.638 290.67 344.839 281.776 326.836 266.301C276.177 231.193 141.837 147.546 -6.5463 133.376C-148.04 120.069 -217.098 134.832 -270.443 189.766C-314.942 240.61 -333.977 369.697 -233.048 484.959C-186.626 544.212 -125.652 583.394 -76.6853 614.871L-72.022 617.836C-15.3087 652.871 22.9587 677.323 52.0024 697.236L55.7489 699.802C93.5951 725.872 126.291 748.334 152.835 742.296C166.101 739.258 177.413 729.26 187.513 711.716Z" fill="#A7CEFC"/>
<path d="M362.828 335.144C365.043 343.409 364.616 352.899 362.931 366.252L362.911 366.516C356.974 392.878 332.622 419.014 306.87 446.643C289.253 465.512 271.093 485.043 256.487 506.589C231.851 538.048 215.659 573.652 199.996 608.039C189.498 631.151 179.561 652.994 167.458 672.966L167.197 673.337C130.424 717.251 104.338 699.814 56.9572 668.213C51.8076 664.776 46.3835 661.155 40.612 657.412C30.4969 649.715 19.3284 641.612 7.48428 633.002C-45.1808 594.775 -117.301 542.366 -186.587 459.738C-263.721 356.721 -254.2 258.61 -210.578 207.012C-164.711 154.727 -93.5889 151.195 29.966 163.029C155.855 178.539 251.863 242.697 303.433 277.174L309.184 281.009C344.185 307.54 358.527 319.094 362.828 335.144ZM357.356 365.596C361.898 329.157 357.214 324.434 305.805 285.355L300.212 281.607C249.032 247.412 153.743 183.75 29.2835 168.373C-92.1999 156.714 -162.041 159.989 -206.217 210.359C-248.441 260.292 -257.368 355.749 -182.046 456.371C-113.279 538.406 -41.4541 590.551 10.9581 628.673C22.8023 637.283 33.9708 645.386 44.0224 653.014C49.6357 656.671 55.0597 660.292 60.2514 663.718C107.685 695.347 129.381 709.833 162.743 670.144C174.617 650.491 184.429 628.853 194.854 605.976C210.61 571.263 226.959 535.402 251.897 503.562C266.628 481.81 284.965 462.103 302.718 443.068C327.874 416.071 351.663 390.517 357.356 365.596Z" fill="#A7CEFC"/>
<path d="M332.99 350.708C335.817 361.261 334.495 372.108 331.048 386.106C323.666 409.931 301.484 433.421 278.048 458.279C264.096 473.027 249.705 488.323 237.149 504.761C216.871 528.472 201.051 554.386 185.71 579.397C173.126 599.929 161.272 619.318 148.054 635.633L147.845 635.861C111.757 671.42 85.2159 651.782 37.012 616.101L36.4524 615.692L28.2033 608.914C-18.6311 570.287 -82.788 517.378 -140.584 436.832C-204.224 340.521 -186.295 263.552 -151.674 226.881C-114.756 187.702 -53.569 178.489 59.5148 195.064C138.692 207.996 216.131 242.982 289.671 299.01C316.384 321.139 328.947 335.621 332.99 350.708ZM143.693 632.286C156.629 616.262 168.4 597.066 180.817 576.752C196.241 551.546 212.238 525.456 232.684 501.528C245.291 484.947 259.839 469.566 273.896 454.704C296.925 430.342 318.647 407.319 325.617 384.809C333.539 352.926 329.536 339.161 286.028 303.212C213.238 247.799 136.663 213.184 58.4749 200.418C-52.4524 184.167 -112.161 192.855 -147.606 230.479C-183.522 268.529 -193.859 346.129 -135.946 433.826C-78.5954 513.717 -14.7764 566.372 31.8675 604.793L40.4546 611.825C88.9964 647.759 111.219 664.21 143.693 632.286Z" fill="#A7CEFC"/>
<path d="M305.12 362.217C308.281 374.014 307.009 386.225 302.01 400.81L301.989 400.901C293.631 423.096 272.552 444.828 250.283 467.826C239.952 478.464 229.319 489.484 219.446 500.989C204.69 516.769 191.599 533.394 178.989 549.459C163.49 569.18 148.835 587.858 133.447 601.615C100.085 627.369 74.292 609.681 35.6736 577.539C-1.71438 543.777 -56.3182 490.76 -99.2927 419.359C-134.994 349.751 -137.06 291 -105.197 253.777C-70.881 213.618 -2.26151 202.93 83.0842 224.443C182.094 244.403 251.718 299.245 270.671 315.583C290.136 333.161 301.142 347.371 305.12 362.217ZM296.682 399.227C305.977 371.965 303.888 353.086 266.807 319.629C248.149 303.555 179.434 249.417 81.6656 229.726C-1.55375 208.761 -68.065 218.755 -100.867 257.176C-131.217 292.66 -128.859 349.312 -94.2739 416.767C-51.7243 487.422 2.46744 540.076 39.5488 573.533C79.2765 606.625 101.164 619.812 129.902 597.619C144.736 584.312 159.224 565.851 174.588 546.295C187.302 530.115 200.413 513.4 215.284 497.545C225.147 486 235.905 474.946 246.267 464.257C268.055 441.646 288.706 420.33 296.682 399.227Z" fill="#A7CEFC"/>
<path d="M279.333 371.407C282.688 383.926 281.282 396.645 275.504 411.009L275.296 411.409C239.085 470.181 142.57 554.057 123.613 570.276L123.152 570.571C94.18 587.021 70.9771 573.628 38.3072 543.203C8.85148 514.197 -32.4116 466.98 -61.951 406.602C-87.3234 350.526 -86.0847 303.102 -58.4769 272.998C-27.7991 239.576 30.3272 231.699 101 251.339C168.34 267.27 223.205 302.628 252.065 330.417C266.867 345.03 275.774 358.125 279.333 371.407ZM270.363 408.946C281.306 381.457 275.246 361.191 248.021 334.296C219.7 307.007 165.774 272.301 99.4339 256.575C31.8248 237.792 -25.5998 245.266 -54.2937 276.521C-80.3772 304.927 -81.3023 350.331 -56.815 404.279C-27.6058 463.929 13.2441 510.611 42.3513 539.324C73.5945 568.454 94.2569 580.593 120.193 566.074C174.649 519.486 242.623 453.837 270.363 408.946Z" fill="#A7CEFC"/>
<path d="M255.611 380.085C259.202 393.487 257.651 406.332 250.981 417.537C224.764 462.235 159.396 518.972 117.083 541.878C107.105 546.444 96.2284 546.649 84.7059 542.597C49.1905 530.095 6.98315 476.164 -28.1898 398.287C-45.1592 353.592 -41.4552 315.872 -17.7619 291.977C9.08637 264.914 57.1673 259.17 114.098 276.213C186.429 298.849 238.452 335.183 253.364 373.376C254.281 375.625 255.02 377.878 255.611 380.085ZM-28.4938 379.187C-27.0101 384.725 -25.1788 390.384 -22.958 396.154C11.5545 472.574 52.5891 525.486 86.7455 537.449C96.8777 541.013 106.241 540.87 114.616 537.034C156.059 514.576 220.382 458.808 246.13 414.88C253.008 403.275 253.703 389.585 248.131 375.338C233.795 338.624 183.03 303.458 112.321 281.334C58.328 265.181 11.2114 270.495 -13.7251 295.626C-32.8113 314.889 -37.8798 344.158 -28.4938 379.187Z" fill="#A7CEFC"/>
<path d="M232.193 385.027C235.526 397.466 234.264 409.544 228.411 420.273C207.663 458.517 154.067 503.111 113.741 515.637L113.657 515.659C76.1452 525.925 29.2968 474.486 2.34442 393.373C-7.94456 358.5 -2.66618 329.175 17.3076 310.706C40.1974 289.521 78.7239 285.39 123.045 299.361C177.036 316.848 216.919 346.156 229.764 377.808C230.735 380.257 231.559 382.659 232.193 385.027ZM112.176 510.465C151.284 498.266 203.301 454.998 223.436 417.822C229.621 406.488 229.984 393.403 224.522 379.9C212.243 349.689 173.606 321.508 121.142 304.516C78.8849 291.196 42.3947 294.867 21.0937 314.594C2.75059 331.594 -2.06671 358.946 7.66319 391.733C33.2661 468.648 78.2205 519.736 112.176 510.465Z" fill="#A7CEFC"/>
<path d="M209.84 389.081C212.754 399.954 211.872 410.598 207.127 420.256C190.609 454.141 147.492 486.638 112.931 491.297C79.6169 495.235 43.2085 451.362 30.0267 391.589C24.6342 365.252 30.6813 343.161 46.994 329.329C65.6908 313.482 95.3429 310.482 128.304 321.175C166.932 333.876 196.401 356.385 207.145 381.374C208.285 383.949 209.152 386.513 209.84 389.081ZM37.7784 399.533C51.8198 451.936 83.5646 489.317 112.342 485.907C144.603 481.563 186.537 449.856 202.079 418.039C207.187 407.553 207.147 395.651 201.966 383.535C191.808 359.895 163.544 338.525 126.39 326.289C95.3985 316.23 67.7933 318.81 50.6336 333.342C35.9312 345.797 30.5669 366.071 35.5057 390.379C36.2389 393.451 36.972 396.523 37.7784 399.533Z" fill="#A7CEFC"/>
<path d="M188.38 392.596C190.724 401.343 190.208 409.996 186.83 418.04C175.09 445.915 142.508 468.536 114.193 468.468C86.1401 468.2 60.3358 434.689 55.4457 392.262C53.4089 373.412 59.2522 357.612 71.9103 347.769C86.2421 336.618 107.628 334.5 130.585 341.939C156.817 350.521 176.828 366.103 185.453 384.693C186.688 387.286 187.67 389.947 188.38 392.596ZM114.36 463.047C140.069 463.126 170.881 441.624 181.637 416.12C185.461 407.054 185.012 396.982 180.348 386.964C172.416 369.952 153.113 354.997 128.702 347.002C107.62 340.179 88.2187 341.98 75.4035 351.908C64.304 360.516 59.2178 374.608 61.0537 391.534C65.525 430.718 89.4603 462.795 114.36 463.047Z" fill="#A7CEFC"/>
<path d="M167.556 395.809C169.18 401.868 169.112 408.165 166.963 414.246C159.938 434.534 137.408 449.172 116.784 446.915C96.2333 444.594 79.2241 421.241 78.8864 394.797C78.7183 382.585 83.5754 372.338 92.4811 365.952C102.297 358.935 116.12 357.468 130.356 361.911C149.911 368.068 163.664 381.284 167.556 395.809ZM161.677 412.651C167.741 395.157 152.904 374.706 128.538 367.043C116.07 363.158 104.095 364.303 95.7968 370.268C88.3979 375.562 84.372 384.209 84.5083 394.623C84.8305 418.491 99.6503 439.55 117.551 441.548C135.672 443.531 155.458 430.574 161.677 412.651Z" fill="#A7CEFC"/>
<path d="M147.208 399.283C148.09 402.573 148.152 405.997 147.258 409.376C144.196 420.948 132.06 428.543 120.16 426.27C108.406 424.044 99.7238 411.619 100.833 398.635C101.363 392.386 104.359 387.111 109.331 383.843C114.565 380.377 121.528 379.5 128.403 381.485C138.121 384.343 145.068 391.298 147.208 399.283ZM107.145 406.577C109.091 413.84 114.581 419.723 121.41 421.032C130.365 422.719 139.537 416.993 141.817 408.21C144.151 399.457 137.334 389.801 126.659 386.727C121.342 385.184 116.321 385.755 112.427 388.347C108.91 390.665 106.778 394.462 106.385 399.04C106.222 401.621 106.5 404.17 107.145 406.577Z" fill="#A7CEFC"/>
</g>
</svg>
